Coordinates
version=1
nRows=22
nColumns=24
inDegrees=yes

Units are S.I. units (second, meters, Newtons, ...)
Angles are in degrees.

endheader
time	pelvis_tilt	pelvis_list	pelvis_rotation	pelvis_tx	pelvis_ty	pelvis_tz	hip_flexion_r	hip_adduction_r	hip_rotation_r	knee_angle_r	ankle_angle_r	subtalar_angle_r	mtp_angle_r	hip_flexion_l	hip_adduction_l	hip_rotation_l	knee_angle_l	ankle_angle_l	subtalar_angle_l	mtp_angle_l	lumbar_extension	lumbar_bending	lumbar_rotation
      1.21616667	    -10.36956356	     -1.17737834	    -10.43918678	      0.03078776	      0.86245253	      0.32168861	     -9.05946990	      5.22983691	      5.01243876	    -11.38447952	     19.10154479	     11.74750997	     14.26042231	     39.39260904	     -6.58272418	     -9.55307446	     -5.38491515	      2.32082088	     -1.12144811	      1.72290607	      4.52054387	      4.30427437	     14.11429871
      1.22033333	    -10.45763217	     -1.08333354	    -10.48017413	      0.03652472	      0.86132105	      0.32161158	     -9.13566970	      5.06991153	      5.02043188	    -11.80062771	     19.01398431	     11.78683182	     14.33738188	     39.58753183	     -6.49605282	     -9.49904802	     -6.00038193	      2.12648583	     -1.22739041	      1.75491634	      4.64900783	      4.11045175	     14.15894683
      1.22450000	    -10.53931456	     -0.98699331	    -10.50568512	      0.04231613	      0.86024841	      0.32151097	     -9.21090817	      4.90930793	      5.01883087	    -12.23140707	     18.87781301	     11.79417849	     14.42545352	     39.76518019	     -6.39396724	     -9.44885162	     -6.63087812	      1.87516523	     -1.36420149	      1.79200910	      4.78681475	      3.91131997	     14.18431537
      1.22866667	    -10.64810885	     -0.87584138	    -10.51866172	      0.04814027	      0.85918092	      0.32138010	     -9.24391824	      4.73931516	      5.02465013	    -12.68257157	     18.71316877	     11.81064098	     14.56321826	     39.96239685	     -6.26877118	     -9.36509126	     -7.26959190	      1.55727368	     -1.54428801	      1.85176563	      4.94111380	      3.69322486	     14.19973675
      1.23283333	    -10.72076849	     -0.75075204	    -10.51263758	      0.05403393	      0.85822182	      0.32120378	     -9.30329380	      4.54665187	      4.98797715	    -13.14787673	     18.46868881	     11.76554129	     17.77815051	     40.10373508	     -6.10532358	     -9.27219424	     -7.89680455	      1.16432218	     -1.88854398	      3.37348696	      5.06491177	      3.44569784	     14.18805551
      1.23700000	    -10.82566683	     -0.64325284	    -10.48385730	      0.05995068	      0.85727287	      0.32100023	     -9.32666749	      4.38568293	      4.96482945	    -13.62286281	     18.16325712	     11.74773968	     17.80922278	     40.29414932	     -5.95413137	     -9.19815087	     -8.57605767	      0.73672539	     -2.05593900	      3.38967899	      5.22760201	      3.23000070	     14.18393333
      1.24116667	    -10.93614325	     -0.51166000	    -10.44902184	      0.06590686	      0.85636866	      0.32077413	     -9.31685716	      4.20096791	      4.93305921	    -14.14519715	     17.86302882	     11.70679143	     17.88716203	     40.47523891	     -5.76995720	     -9.10573659	     -9.24157433	      0.26439239	     -2.34772234	      3.42420231	      5.40643454	      2.97926996	     14.15578723
      1.24533333	    -11.04700356	     -0.38457314	    -10.38758153	      0.07188835	      0.85551096	      0.32046790	     -9.28669705	      4.02127985	      4.86320452	    -14.70827315	     17.56031809	     11.67750179	     18.11685430	     40.65227697	     -5.55929218	     -8.93125806	     -9.90539431	     -0.26472043	     -2.84627491	      3.52464447	      5.58324020	      2.74565562	     14.09684605
      1.24950000	    -11.13937107	     -0.22975689	    -10.31621703	      0.07796075	      0.85476801	      0.32018032	     -9.27417930	      3.81196949	      4.80115189	    -15.25865923	     17.10579412	     11.62421157	     18.25469135	     40.80446169	     -5.32778014	     -8.87218744	    -10.58047226	     -0.79114985	     -3.08267281	      3.57906198	      5.75004386	      2.43989278	     14.05666465
      1.25366667	    -11.23033023	     -0.06975826	    -10.22862454	      0.08403588	      0.85407073	      0.31980042	     -9.22231755	      3.58867417	      4.66649788	    -15.87580378	     16.63574831	     11.59042001	     22.09416846	     40.95123472	     -5.06248550	     -8.71515913	    -11.24983308	     -1.37459380	     -3.64376915	      5.15991275	      5.90346523	      2.14889496	     13.97675520
      1.25783333	    -11.34908279	      0.06601624	    -10.11369013	      0.09013279	      0.85339088	      0.31941982	     -9.14245248	      3.41481485	      4.59326060	    -16.50425057	     16.13667094	     11.45251693	     22.16593278	     41.15298189	     -4.81922421	     -8.59214340	    -11.98381267	     -1.92157931	     -4.00669099	      5.18833745	      6.09996119	      1.89187970	     13.89177862
      1.26200000	    -11.44524323	      0.23520888	     -9.99105084	      0.09630805	      0.85282716	      0.31901780	     -9.06692368	      3.19580161	      4.48783949	    -17.15254739	     15.54567648	     11.38547833	     22.24450820	     41.31854673	     -4.53956892	     -8.50813323	    -12.71050199	     -2.43084233	     -4.29160731	      5.21094060	      6.27535001	      1.56052988	     13.82249501
      1.26616667	    -11.55799508	      0.40215695	     -9.85175270	      0.10248262	      0.85228813	      0.31856617	     -8.93997848	      2.98404017	      4.36059714	    -17.86389185	     14.95377994	     11.30907502	     22.38583816	     41.50936348	     -4.24674601	     -8.36885187	    -13.45717186	     -2.93178871	     -4.70802364	      5.24718984	      6.47168922	      1.24714837	     13.71772077
      1.27033333	    -11.66223147	      0.56131425	     -9.68729560	      0.10864823	      0.85180813	      0.31803287	     -8.78625132	      2.77910045	      4.19146194	    -18.64543539	     14.39824492	     11.22825579	     22.74991868	     41.69555575	     -3.93073991	     -8.14341570	    -14.21404495	     -3.44112556	     -5.31141613	      5.33556461	      6.64156238	      0.96532045	     13.55741331
      1.27450000	    -11.72447336	      0.75200878	     -9.51365714	      0.11492427	      0.85146920	      0.31750364	     -8.66764278	      2.52607896	      3.97823979	    -19.41484144	     13.62126223	     11.15632775	     27.36195344	     41.83715692	     -3.59178246	     -8.02742972	    -14.99851484	     -3.81673723	     -5.65003688	      6.43445624	      6.76853448	      0.59684290	     13.47573527
      1.27866667	    -11.81584840	      0.92189890	     -9.33346353	      0.12117748	      0.85115061	      0.31695846	     -8.49248243	      2.30970776	      3.81368209	    -20.24018313	     12.88091801	     11.05062111	     27.42873033	     42.02617197	     -3.27421423	     -7.89480702	    -15.82924849	     -4.15616068	     -5.99672328	      6.44642883	      6.93187804	      0.28525785	     13.34654719
      1.28283333	    -11.87283736	      1.10921028	     -9.13714818	      0.12750466	      0.85094514	      0.31640103	     -8.33673248	      2.06684222	      3.61473914	    -21.08695889	     12.07073536	     10.99591491	     27.49644880	     42.17587983	     -2.93245480	     -7.78701807	    -16.67758959	     -4.36774961	     -6.23388308	      6.45492880	      7.05911272	     -0.08695263	     13.26537062
      1.28700000	    -11.95916690	      1.28735079	     -8.92520680	      0.13379389	      0.85073486	      0.31576316	     -8.09701464	      1.83449004	      3.37277180	    -22.03395966	     11.30252910	     10.93029832	     27.71479097	     42.36181420	     -2.57905017	     -7.59054798	    -17.53325567	     -4.60802194	     -6.64285140	      6.47230826	      7.21605052	     -0.40363605	     13.09020714
      1.29116667	    -11.97081349	      1.50412520	     -8.72020848	      0.14016760	      0.85072062	      0.31513096	     -7.91427314	      1.53578844	      3.10128286	    -22.99041124	     10.37629975	     10.90202471	     31.22460894	     42.44190000	     -2.19041231	     -7.46218480	    -18.35812145	     -4.74040717	     -6.94572725	      6.70166496	      7.27690551	     -0.79638725	     12.95579413
      1.29533333	    -12.01884761	      1.67539597	     -8.47638736	      0.14654639	      0.85066400	      0.31446774	     -7.68588064	      1.30381551	      2.82149339	    -23.97676479	      9.48294131	     10.83674125	     31.27814702	     42.60179970	     -1.83398808	     -7.29939973	    -19.28983570	     -4.71967567	     -7.14147162	      6.70345986	      7.39710636	     -1.14061450	     12.86097293
      1.29950000	    -12.01893980	      1.87189937	     -8.24291142	      0.15296744	      0.85075446	      0.31381213	     -7.47644596	      1.02912693	      2.53492851	    -25.00347093	      8.52596896	     10.81186400	     31.33484921	     42.68318946	     -1.45529690	     -7.16737581	    -20.18180516	     -4.63310382	     -7.30261448	      6.70363884	      7.45117565	     -1.53029651	     12.78109805
      1.30366667	    -12.04699080	      2.06781095	     -7.99877056	      0.15936294	      0.85082990	      0.31308089	     -7.18452144	      0.74512636	      2.19329338	    -26.12233478	      7.59045922	     10.82107000	     31.55511182	     42.78978921	     -1.06399157	     -6.99129361	    -21.06376833	     -4.56476723	     -7.53734326	      6.68993149	      7.54110374	     -1.87782288	     12.59188632
